<svg width="420" height="404" viewBox="0 0 420 404" fill="none" xmlns="http://www.w3.org/2000/svg">
<path d="M281.781 -2.26744e-05C280.899 0.0112334 279.993 0.0544961 279.094 0.124977C243.27 6.30848 223.573 44.1893 220.719 77.5937C216.548 107.905 229.906 146.864 263.188 153.656C268.015 154.575 273.031 154.155 277.75 152.875C317.827 139.437 335.762 91.9719 329.969 52.6562C328.285 27.2638 309.143 -0.348962 281.781 -2.26744e-05ZM129.906 1.62498C107.631 2.17176 90.2797 24.7634 86.75 46C79.3091 88.0743 98.4484 140.352 142.281 153.656C146.387 154.549 150.634 154.641 154.781 154C184.408 149.062 196.958 115.846 195.719 89.0312C194.827 53.6587 176.453 12.7581 139.719 2.81248C136.361 1.92206 133.088 1.54687 129.906 1.62498ZM378.844 121.125C340.309 123.43 313.891 161.879 310.125 197.781C305.025 223.675 318.83 258.308 348.375 260.375C389.572 259.867 417.676 215.846 418.844 177.969C421.45 152.917 406.693 122.508 378.844 121.125ZM41.5625 129.656C25.1685 129.515 9.04493 139.335 3.68751 156C-10.6052 200.579 18.0964 257.038 65.3125 266.406C85.0181 269.778 102.333 254.645 107.219 236.437C117.573 197.493 96.3054 152.272 60.3125 134.594C54.4486 131.303 47.9776 129.711 41.5625 129.656ZM214.313 209.594C182.173 209.662 149.53 225.972 128.719 250.25C106.241 278.547 87.8285 311.476 80.625 347.187C71.8736 372.894 91.7084 402.478 119.188 402.656C152.246 403.575 180.658 380.873 213.531 379.187C241.421 374.936 266.394 389.443 291.469 398.937C312.818 408.069 342.319 404.569 353.219 381.594C361.792 358.175 349.173 333.204 338.719 312.406C317.397 278.649 294.554 243.17 259.594 222.094C245.581 213.408 230.008 209.56 214.313 209.594Z" fill="#FF3D9A"/>
</svg>
