<svg width="420" height="404" viewBox="0 0 420 404" fill="none" xmlns="http://www.w3.org/2000/svg">
<path d="M281.779 0.00327322C280.896 0.0145293 279.99 0.057792 279.091 0.128273C243.267 6.31177 223.57 44.1926 220.716 77.597C216.545 107.908 229.903 146.868 263.185 153.66C268.012 154.579 273.028 154.159 277.747 152.878C317.824 139.44 335.759 91.9752 329.966 52.6595C328.282 27.2671 309.14 -0.345666 281.779 0.00327322ZM129.904 1.62827C107.629 2.17505 90.2769 24.7667 86.7473 46.0033C79.3064 88.0776 98.4456 140.355 142.279 153.66C146.384 154.552 150.631 154.644 154.779 154.003C184.405 149.066 196.956 115.849 195.716 89.0345C194.824 53.662 176.45 12.7614 139.716 2.81577C136.358 1.92536 133.086 1.55016 129.904 1.62827ZM378.841 121.128C340.307 123.434 313.888 161.882 310.122 197.785C305.023 223.678 318.827 258.311 348.372 260.378C389.569 259.87 417.673 215.85 418.841 177.972C421.447 152.921 406.69 122.511 378.841 121.128ZM41.5598 129.66C25.1658 129.518 9.04218 139.338 3.68476 156.003C-10.6079 200.582 18.0937 257.041 65.3098 266.41C85.0154 269.782 102.33 254.649 107.216 236.441C117.571 197.496 96.3027 152.276 60.3098 134.597C54.4458 131.306 47.9748 129.715 41.5598 129.66ZM214.31 209.597C182.17 209.666 149.527 225.975 128.716 250.253C106.239 278.55 87.8258 311.48 80.6223 347.191C71.8709 372.897 91.7057 402.481 119.185 402.66C152.244 403.578 180.656 380.877 213.529 379.191C241.419 374.939 266.392 389.446 291.466 398.941C312.815 408.072 342.316 404.573 353.216 381.597C361.79 358.178 349.17 333.207 338.716 312.41C317.394 278.653 294.551 243.174 259.591 222.097C245.578 213.411 230.006 209.564 214.31 209.597Z" fill="#F8DB46"/>
</svg>
